<svg xmlns="http://www.w3.org/2000/svg" viewBox="0 0 32 32" fill="none">
  <rect width="32" height="32" rx="8" fill="url(#favicon-gradient)"/>
  <path d="M8 9h9c1.7 0 3 1.3 3 3v11H11c-1.7 0-3-1.3-3-3V9z" fill="#fff" fill-opacity="0.96"/>
  <path d="M13 9h9c1.7 0 3 1.3 3 3v11H16c-1.7 0-3-1.3-3-3V9z" fill="#bfdbfe" fill-opacity="0.95"/>
  <path d="M10 12h5v1.2h-5V12zm0 2.8h6.5v1.2H10v-1.2zm0 2.8h4.5v1.2H10v-1.2z" fill="#1d4ed8"/>
  <path d="M16 12h5v1.2h-5V12zm0 2.8h6.5v1.2H16v-1.2z" fill="#1e40af" fill-opacity="0.55"/>
  <defs>
    <linearGradient id="favicon-gradient" x1="5" y1="4" x2="27" y2="28" gradientUnits="userSpaceOnUse">
      <stop stop-color="#2563eb"/>
      <stop offset="1" stop-color="#1e3a8a"/>
    </linearGradient>
  </defs>
</svg>
