<svg xmlns="http://www.w3.org/2000/svg" viewBox="0 0 1200 630" fill="none">
  <rect width="1200" height="630" fill="#F5F8FF"/>
  <rect x="72" y="72" width="1056" height="486" rx="32" fill="#FFFFFF" stroke="#DCE4FF" stroke-width="2"/>
  <rect x="120" y="120" width="96" height="96" rx="24" fill="#00C49A"/>
  <path d="M144 150h36c6 0 11 5 11 11v45H159c-6 0-11-5-11-11v-45z" fill="#FFFFFF"/>
  <path d="M168 150h36c6 0 11 5 11 11v45H183c-6 0-11-5-11-11v-45z" fill="#DFFFF8"/>
  <path d="M150 168h18v4h-18v-4zm0 12h24v4h-24v-4zm0 12h16v4h-16v-4z" fill="#009973"/>
  <text x="248" y="188" fill="#1E1B2E" font-family="Georgia, Fraunces, serif" font-size="56" font-weight="700">PDFTwin</text>
  <text x="248" y="238" fill="#5C5678" font-family="Arial, IBM Plex Sans, sans-serif" font-size="30">Merge · Split · Convert · Protect PDFs online</text>
  <rect x="248" y="286" width="220" height="56" rx="12" fill="#DFFFF8" stroke="#A8FFEB"/>
  <text x="272" y="323" fill="#009973" font-family="Arial, IBM Plex Sans, sans-serif" font-size="24" font-weight="600">Free · 24 MB per file</text>
  <rect x="488" y="286" width="220" height="56" rx="12" fill="#F0E5FF" stroke="#DDB8FF"/>
  <text x="512" y="323" fill="#7C00E5" font-family="Arial, IBM Plex Sans, sans-serif" font-size="24" font-weight="600">No signup required</text>
  <rect x="728" y="286" width="220" height="56" rx="12" fill="#FFE8DC" stroke="#FFC9B0"/>
  <text x="752" y="323" fill="#E04412" font-family="Arial, IBM Plex Sans, sans-serif" font-size="24" font-weight="600">Secure processing</text>
  <text x="120" y="430" fill="#5C5678" font-family="Arial, IBM Plex Sans, sans-serif" font-size="28">Your complete PDF workspace — fast, private, and browser-based.</text>
</svg>
