<svg xmlns="http://www.w3.org/2000/svg" viewBox="0 0 1200 630" fill="none">
  <rect width="1200" height="630" fill="#FAF8FC"/>
  <rect x="72" y="72" width="1056" height="486" rx="32" fill="#FFFFFF" stroke="#E8E4EF" stroke-width="2"/>
  <rect x="120" y="120" width="96" height="96" rx="24" fill="#3D9A78"/>
  <path d="M144 150h36c6 0 11 5 11 11v45H159c-6 0-11-5-11-11v-45z" fill="#FDFCFE"/>
  <path d="M168 150h36c6 0 11 5 11 11v45H183c-6 0-11-5-11-11v-45z" fill="#ECFDF5"/>
  <path d="M150 168h18v4h-18v-4zm0 12h24v4h-24v-4zm0 12h16v4h-16v-4z" fill="#2D7A5E"/>
  <text x="248" y="188" fill="#2D2A35" font-family="Georgia, Fraunces, serif" font-size="56" font-weight="700">PDFTwin</text>
  <text x="248" y="238" fill="#6B6578" font-family="Arial, IBM Plex Sans, sans-serif" font-size="30">Merge · Split · Convert · Protect PDFs online</text>
  <rect x="248" y="286" width="220" height="56" rx="12" fill="#ECFDF5" stroke="#C6F6E0"/>
  <text x="272" y="323" fill="#2D7A5E" font-family="Arial, IBM Plex Sans, sans-serif" font-size="24" font-weight="600">Free · 24 MB per file</text>
  <rect x="488" y="286" width="220" height="56" rx="12" fill="#F3F0FF" stroke="#E4DEFF"/>
  <text x="512" y="323" fill="#5E4FC4" font-family="Arial, IBM Plex Sans, sans-serif" font-size="24" font-weight="600">No signup required</text>
  <rect x="728" y="286" width="220" height="56" rx="12" fill="#FFF4ED" stroke="#FFE4D4"/>
  <text x="752" y="323" fill="#C46D3A" font-family="Arial, IBM Plex Sans, sans-serif" font-size="24" font-weight="600">Secure processing</text>
  <text x="120" y="430" fill="#6B6578" font-family="Arial, IBM Plex Sans, sans-serif" font-size="28">Your complete PDF workspace — fast, private, and browser-based.</text>
</svg>
